<?xml version="1.0" encoding="utf-8"?>
<!-- Generator: Adobe Illustrator 16.0.0, SVG Export Plug-In . SVG Version: 6.00 Build 0)  -->
<!DOCTYPE svg PUBLIC "-//W3C//DTD SVG 1.1//EN" "http://www.w3.org/Graphics/SVG/1.1/DTD/svg11.dtd">
<svg version="1.1" id="Layer_1" xmlns="http://www.w3.org/2000/svg" xmlns:xlink="http://www.w3.org/1999/xlink" x="0px" y="0px"
	 width="439.37px" height="170.08px" viewBox="0 0 439.37 170.08" enable-background="new 0 0 439.37 170.08" xml:space="preserve">
<g>
	<text transform="matrix(1 0 0 1 142.7095 112.7559)"><tspan x="0" y="0" fill="#FFFFFF" font-family="'Georgia'" font-size="40.7164">P</tspan><tspan x="24.831" y="0" fill="#FFFFFF" font-family="'Georgia'" font-size="40.7164">roperty </tspan><tspan x="167" y="0" fill="#FCC20E" font-family="'Georgia'" font-size="40.7164">S</tspan><tspan x="189.844" y="0" fill="#FFFFFF" font-family="'Georgia'" font-size="40.7164">tore</tspan></text>
	<g>
		<polygon fill="#FFFFFF" points="96.54,74.134 86.977,64.569 84.619,66.926 96.54,78.845 96.54,120.797 98.204,120.797 
			99.872,120.797 99.872,82.177 99.872,77.465 		"/>
		<polygon fill="#FFFFFF" points="111.505,74.134 94.459,57.086 92.102,59.441 111.505,78.845 111.505,120.797 113.171,120.797 
			114.839,120.797 114.839,82.177 114.839,77.465 		"/>
		<path fill="#FCC20E" d="M126.322,74.134l-24.454-24.456l-2.314-2.313l0.028-0.031l-0.04-0.041l-2.314-2.314l-0.032,0.029
			l-0.015-0.015l-0.014-0.015l-2.358,2.355l0.015,0.014l0.019,0.018l-5.055,5.051l-2.353,2.357l-5.13,5.127l-2.354,2.356
			L67.565,74.639l-3.334,3.332v4.713v38.113v3.334h3.334H96.54h1.664h1.668h11.634h1.666h1.668h11.482h1.666h1.666V82.177v-4.712
			L126.322,74.134z M126.322,120.797h-11.482h-1.668h-1.666H99.872h-1.668H96.54H67.565V79.352l8.092-8.094v-0.084l6.607-6.605
			l2.354-2.354l5.128-5.128l2.355-2.358l5.053-5.05l0.04,0.042l2.315,2.313l26.812,26.813V120.797z"/>
		<polygon fill="#FFFFFF" points="87.112,49.741 84.757,47.385 84.737,47.365 82.413,44.978 82.35,44.978 80.026,47.365 
			52.749,74.639 49.415,77.971 49.415,82.684 49.415,120.797 37.781,120.797 37.781,79.352 51.73,65.404 67.414,49.72 
			69.702,52.006 70.147,52.455 72.505,50.098 72.06,49.653 69.768,47.365 67.442,44.978 65.055,47.365 37.781,74.639 34.449,77.971 
			34.449,82.684 34.449,120.797 34.449,124.131 37.781,124.131 49.415,124.131 52.749,124.131 64.231,124.131 64.231,120.797 
			52.749,120.797 52.749,79.352 82.399,49.741 84.757,52.097 85.061,52.401 87.415,50.043 		"/>
	</g>
</g>
</svg>
