<svg xmlns="http://www.w3.org/2000/svg" width="130" height="130" viewBox="0 0 130 130"><defs><style>.a{fill:#f0f0f0;stroke:rgba(112,112,112,0.2);}.b{fill:#9a9da2;}.c{stroke:none;}.d{fill:none;}</style></defs><g transform="translate(-1782 -723)"><g class="a" transform="translate(1782 723)"><rect class="c" width="130" height="130" rx="5"/><rect class="d" x="0.5" y="0.5" width="129" height="129" rx="4.5"/></g><g transform="translate(1814.9 756.2)"><g transform="translate(278 232)"><path class="b" d="M-226.2-181.6h-39.5a4.225,4.225,0,0,1-4.2-4.2V-214a4.225,4.225,0,0,1,4.2-4.2h39.5A4.225,4.225,0,0,1-222-214v28.2a4.225,4.225,0,0,1-4.2,4.2Zm-39.6-33.9a1.367,1.367,0,0,0-1.4,1.4v28.2a1.367,1.367,0,0,0,1.4,1.4h39.5a1.367,1.367,0,0,0,1.4-1.4v-28.2a1.367,1.367,0,0,0-1.4-1.4Z"/><path class="b" d="M-238.9-201.5a5.484,5.484,0,0,1-5.5-5.5,5.549,5.549,0,0,1,5.5-5.5,5.549,5.549,0,0,1,5.5,5.5,5.549,5.549,0,0,1-5.5,5.5Zm0-8.5a2.9,2.9,0,0,0-2.9,2.9,2.9,2.9,0,0,0,2.9,2.9,2.9,2.9,0,0,0,2.9-2.9,2.9,2.9,0,0,0-2.9-2.9Z"/><path class="b" d="M-231.4-182.1l-23.1-21.7-13.2,12.2-1.8-1.9,15-13.9,24.9,23.4-1.8,1.9"/><path class="b" d="M-224.2-189.3l-7.7-6.2-6.4,5.3-1.7-2.1,8.1-6.6,9.3,7.6-1.6,2"/></g></g></g></svg>