<svg xmlns="http://www.w3.org/2000/svg" viewBox="0 0 1152.18 279.79"><defs><style>.cls-1{fill:#1a1a1a;}.cls-2,.cls-8{fill:#a12d8a;}.cls-3,.cls-6{fill:#f9a331;}.cls-4{fill:#9cc64d;}.cls-5,.cls-7{fill:#0a9fda;}.cls-6{stroke:#f9a331;}.cls-6,.cls-7,.cls-8{stroke-miterlimit:10;}.cls-7{stroke:#00a0df;}.cls-8{stroke:#a12d8a;}</style></defs><title>mondo_logo</title><g id="Layer_2" data-name="Layer 2"><path class="cls-1" d="M934.54,190.27H901.31v-69a39.22,39.22,0,0,0-1.49-10.91,26.61,26.61,0,0,0-4.58-9.17,22.7,22.7,0,0,0-7.82-6.33,24.69,24.69,0,0,0-11.16-2.35q-11.65,0-18.35,8.18t-6.69,20.58v69H818v-69q0-12.13-7.19-20.46t-19.09-8.3q-12.15,0-19.22,8.18t-7.07,20.58v69H733.67v-127h31.74V77.68A49.24,49.24,0,0,1,779.92,66a42.15,42.15,0,0,1,21-5.21,43.11,43.11,0,0,1,20.34,5,50.57,50.57,0,0,1,15.87,12.9A66.28,66.28,0,0,1,856.3,65.53a56.32,56.32,0,0,1,45.14,0A52.82,52.82,0,0,1,919,78.42a59.7,59.7,0,0,1,11.41,19.22,67.53,67.53,0,0,1,4.09,23.68Z" transform="translate(-379.53 0.19)"/><path class="cls-1" d="M951.9,126.78A65.67,65.67,0,0,1,971,80.16,66.86,66.86,0,0,1,992,66a66.46,66.46,0,0,1,51.59,0,66.33,66.33,0,0,1,35.09,35.09,66.46,66.46,0,0,1,0,51.59,66.86,66.86,0,0,1-14.14,21,65.67,65.67,0,0,1-46.62,19.1A65.89,65.89,0,0,1,992,187.66a64.72,64.72,0,0,1-35-35A65.89,65.89,0,0,1,951.9,126.78Zm31.25,0a35.26,35.26,0,0,0,2.73,13.89,35.77,35.77,0,0,0,7.31,11.16,32,32,0,0,0,10.92,7.31,37.58,37.58,0,0,0,27.52,0,32,32,0,0,0,10.91-7.31,35.79,35.79,0,0,0,7.32-11.16,36.7,36.7,0,0,0,0-27.78,35.79,35.79,0,0,0-7.32-11.16,32,32,0,0,0-10.91-7.31,37.58,37.58,0,0,0-27.52,0,32,32,0,0,0-10.92,7.31,35.77,35.77,0,0,0-7.31,11.16A35.26,35.26,0,0,0,983.15,126.78Z" transform="translate(-379.53 0.19)"/><path class="cls-1" d="M1233.13,190.27h-31.75V125a47.63,47.63,0,0,0-1.86-13.51,32.4,32.4,0,0,0-5.7-11.16,27.18,27.18,0,0,0-9.92-7.69,33.26,33.26,0,0,0-14.26-2.85A29.88,29.88,0,0,0,1147.32,99q-8.92,9.18-9.42,26v65.23h-31.75v-127h31.75V77.43A56.39,56.39,0,0,1,1155,65.77a52.94,52.94,0,0,1,22.57-5,54.93,54.93,0,0,1,22.32,4.47,50.06,50.06,0,0,1,17.6,12.89A59.54,59.54,0,0,1,1229,98.63a84.32,84.32,0,0,1,4.09,27.16Z" transform="translate(-379.53 0.19)"/><path class="cls-1" d="M1250.48,126.78a67.08,67.08,0,0,1,4.59-24.8,61.51,61.51,0,0,1,12.77-20.21,60.47,60.47,0,0,1,19.35-13.52,59.26,59.26,0,0,1,24.3-5,50.27,50.27,0,0,1,18.73,3.6,45.55,45.55,0,0,1,15.5,10V-.19h31.74V190.27h-31.74V176.63a45.25,45.25,0,0,1-15.5,10,50.27,50.27,0,0,1-18.73,3.6,59.1,59.1,0,0,1-24.3-5,60.47,60.47,0,0,1-19.35-13.52,61.51,61.51,0,0,1-12.77-20.21A67,67,0,0,1,1250.48,126.78Zm100.2,0a34.16,34.16,0,0,0-2.61-13.39,34,34,0,0,0-18.23-18.23,35.78,35.78,0,0,0-26.78,0,34,34,0,0,0-18.23,18.23,35.78,35.78,0,0,0,0,26.78,34,34,0,0,0,18.23,18.23,35.78,35.78,0,0,0,26.78,0,34,34,0,0,0,18.23-18.23A34.12,34.12,0,0,0,1350.68,126.78Z" transform="translate(-379.53 0.19)"/><path class="cls-1" d="M1399.78,126.78a65.61,65.61,0,0,1,19.09-46.62,66.9,66.9,0,0,1,21-14.14,66.44,66.44,0,0,1,51.58,0,66.24,66.24,0,0,1,35.09,35.09,66.46,66.46,0,0,1,0,51.59,66.83,66.83,0,0,1-14.13,21,65.72,65.72,0,0,1-46.63,19.1,65.84,65.84,0,0,1-25.91-5.09,64.69,64.69,0,0,1-35-35A65.88,65.88,0,0,1,1399.78,126.78Zm31.25,0a35.26,35.26,0,0,0,2.72,13.89,35.79,35.79,0,0,0,7.32,11.16,32.07,32.07,0,0,0,10.91,7.31,37.6,37.6,0,0,0,27.53,0,32.07,32.07,0,0,0,10.91-7.31,36,36,0,0,0,7.32-11.16,36.83,36.83,0,0,0,0-27.78,36,36,0,0,0-7.32-11.16,32.07,32.07,0,0,0-10.91-7.31,37.6,37.6,0,0,0-27.53,0,32.07,32.07,0,0,0-10.91,7.31,35.79,35.79,0,0,0-7.32,11.16A35.26,35.26,0,0,0,1431,126.78Z" transform="translate(-379.53 0.19)"/><path class="cls-2" d="M522.29,153.89,559.53,52.43c5.42-11.62,10.28-23,23-23h77.73c-12.67,0-17.53,10.8-23,23L591.92,178.18c-5.24,14-12.93,32.39-36.14,22.41l-61.4-32.52C507.05,168.07,516.91,164.42,522.29,153.89Z" transform="translate(-379.53 0.19)"/><path class="cls-3" d="M379.53,112.6l29.66-60.71c5.43-11.62,10.28-23,22.95-23h77.73c-12.67,0-17.52,10.8-22.95,23L457.26,112.6Z" transform="translate(-379.53 0.19)"/><path class="cls-4" d="M626.62,242.77A34.49,34.49,0,0,1,605.43,211V52.43a23,23,0,0,0-22.95-23h77.73a23,23,0,0,1,22.95,23v213.9Z" transform="translate(-379.53 0.19)"/><path class="cls-5" d="M532.83,169.54V51.89a23,23,0,0,0-23-23H432.14a23,23,0,0,1,22.95,23v86.88c0,18.77,12.16,24.44,23,29.43l77.73,32.39C543.57,194,532.83,184.87,532.83,169.54Z" transform="translate(-379.53 0.19)"/><path class="cls-6" d="M768.05,255.86a17.79,17.79,0,0,1-5.9,4,18.57,18.57,0,0,1-7.38,1.42,18.16,18.16,0,0,1-7.35-1.5,18.91,18.91,0,0,1-10-10.06,18.82,18.82,0,0,1,0-14.7,19,19,0,0,1,10.06-10,19.07,19.07,0,0,1,15.06.12,19.24,19.24,0,0,1,5.92,4.23l-3.91,3.83a13,13,0,0,0-4.33-3,14,14,0,0,0-10.61-.05,13.19,13.19,0,0,0-4.27,2.84,13.24,13.24,0,0,0-3.88,9.4,13.46,13.46,0,0,0,3.86,9.49,13.09,13.09,0,0,0,4.26,2.84,13.33,13.33,0,0,0,5.22,1,13.1,13.1,0,0,0,5.29-1,14,14,0,0,0,4.23-2.8Z" transform="translate(-379.53 0.19)"/><path class="cls-6" d="M777.78,260.63l.05-54.55h5.68l0,54.55Z" transform="translate(-379.53 0.19)"/><path class="cls-6" d="M796.29,210.08a4.13,4.13,0,0,1,4.12-4.12,4.13,4.13,0,0,1,3,1.21,4.21,4.21,0,0,1,0,5.9,4.07,4.07,0,0,1-3,1.2,3.93,3.93,0,0,1-2.91-1.21A4,4,0,0,1,796.29,210.08Zm7,14.21,0,36.36h-5.68l0-36.37Z" transform="translate(-379.53 0.19)"/><path class="cls-6" d="M846.32,255.94a18,18,0,0,1-5.9,4,18.83,18.83,0,0,1-7.39,1.41,18.23,18.23,0,0,1-7.35-1.5,19,19,0,0,1-6-4,19.23,19.23,0,0,1-4.05-6,18.87,18.87,0,0,1,0-14.7,19,19,0,0,1,4.05-6,19.23,19.23,0,0,1,6-4,18.32,18.32,0,0,1,7.35-1.48,18.13,18.13,0,0,1,7.7,1.6,19.15,19.15,0,0,1,5.93,4.24l-3.91,3.83a13.07,13.07,0,0,0-4.33-3,14,14,0,0,0-10.62,0,13.25,13.25,0,0,0-4.26,2.84,13.44,13.44,0,0,0-2.85,4.22,13,13,0,0,0-1,5.19,13.49,13.49,0,0,0,1,5.22,13.58,13.58,0,0,0,17.61,7.12,14.24,14.24,0,0,0,4.23-2.8Z" transform="translate(-379.53 0.19)"/><path class="cls-6" d="M861,206.16l0,33.67h9l9.46-15.48h6.11L874.6,242.54l10.92,18.19h-6.11L870,245.31h-9l0,15.41h-5.61l.06-54.54Z" transform="translate(-379.53 0.19)"/><path class="cls-7" d="M947.52,256a17.79,17.79,0,0,1-5.9,4,18.57,18.57,0,0,1-7.38,1.42,18.16,18.16,0,0,1-7.35-1.5,18.91,18.91,0,0,1-10-10.06,18.82,18.82,0,0,1,0-14.7,19,19,0,0,1,10.06-10,19.07,19.07,0,0,1,15.06.12,19.24,19.24,0,0,1,5.92,4.23L944,233.37a13,13,0,0,0-4.33-3,14,14,0,0,0-10.61,0,13.19,13.19,0,0,0-4.27,2.84,13.24,13.24,0,0,0-3.88,9.4,13.46,13.46,0,0,0,3.86,9.49,13.09,13.09,0,0,0,4.26,2.84,13.33,13.33,0,0,0,5.22,1,13.1,13.1,0,0,0,5.29-1,13.86,13.86,0,0,0,4.23-2.8Z" transform="translate(-379.53 0.19)"/><path class="cls-7" d="M954.07,242.62a18.55,18.55,0,0,1,5.45-13.24,18.89,18.89,0,0,1,20.56-4,19,19,0,0,1,6,4,18.44,18.44,0,0,1,5.46,13.25A18.22,18.22,0,0,1,990,250a18.6,18.6,0,0,1-10,10,18.69,18.69,0,0,1-20.56-4,19,19,0,0,1-4-6A18.41,18.41,0,0,1,954.07,242.62Zm5.54,0a13.08,13.08,0,0,0,8,12.19,13.37,13.37,0,0,0,10.27,0,13.92,13.92,0,0,0,4.19-2.8,13.1,13.1,0,0,0,3.88-9.37,12.74,12.74,0,0,0-1-5.15,13.33,13.33,0,0,0-7-7,13.23,13.23,0,0,0-10.26,0,13,13,0,0,0-4.2,2.83,14,14,0,0,0-2.81,4.19A12.94,12.94,0,0,0,959.61,242.62Z" transform="translate(-379.53 0.19)"/><path class="cls-7" d="M1058.17,260.9h-5.82l0-20.88a13.5,13.5,0,0,0-.64-4.19,9.82,9.82,0,0,0-1.91-3.48,9.07,9.07,0,0,0-3.09-2.35,9.77,9.77,0,0,0-4.15-.86,9.1,9.1,0,0,0-4,.89,9.8,9.8,0,0,0-3.16,2.37,11.33,11.33,0,0,0-2.07,3.45,11.45,11.45,0,0,0-.75,4.15l0,20.88h-5.82l0-20.88a12.05,12.05,0,0,0-.67-4,11,11,0,0,0-2-3.48,10,10,0,0,0-3.12-2.49,9,9,0,0,0-4.19-1,9.27,9.27,0,0,0-4.23.95,9.83,9.83,0,0,0-3.2,2.59,12.52,12.52,0,0,0-2.06,3.8,13.92,13.92,0,0,0-.75,4.58l0,19.82h-5.54l0-36.36h5.54V231a13.86,13.86,0,0,1,1.7-2.7,12.8,12.8,0,0,1,2.56-2.41,13,13,0,0,1,3.34-1.7,11.79,11.79,0,0,1,3.91-.64,12.22,12.22,0,0,1,7.24,2.21,14.38,14.38,0,0,1,4.76,5.62,15.8,15.8,0,0,1,5.33-5.61,13.47,13.47,0,0,1,7.53-2.19,15,15,0,0,1,6.14,1.24,14.42,14.42,0,0,1,4.83,3.45,15.65,15.65,0,0,1,3.12,5.23,18.91,18.91,0,0,1,1.09,6.5Z" transform="translate(-379.53 0.19)"/><path class="cls-7" d="M1105.7,242.76a18.38,18.38,0,0,1-1.39,7.1,18.11,18.11,0,0,1-3.81,5.79,17.9,17.9,0,0,1-12.86,5.27,14.4,14.4,0,0,1-3.87-.53,16,16,0,0,1-3.47-1.43,13.7,13.7,0,0,1-2.84-2.06,14.32,14.32,0,0,1-2.1-2.45l0,24.64h-5.61l0-54.55h5.61v6.6a14.56,14.56,0,0,1,4.87-4.61,13.88,13.88,0,0,1,7.42-2,17.69,17.69,0,0,1,16.64,11.1A18.37,18.37,0,0,1,1105.7,242.76Zm-31.11,0a13.46,13.46,0,0,0,1,5.08,12.39,12.39,0,0,0,2.66,4.12,12.64,12.64,0,0,0,4,2.74,12.16,12.16,0,0,0,4.9,1,13.11,13.11,0,0,0,5.08-1,12.56,12.56,0,0,0,4.12-2.73,13.18,13.18,0,0,0,2.78-4.12,12.74,12.74,0,0,0,1-5.08,12.51,12.51,0,0,0-1-5,13.49,13.49,0,0,0-2.77-4.09,12.56,12.56,0,0,0-4.12-2.73,12.88,12.88,0,0,0-5.07-1,12.17,12.17,0,0,0-4.91,1,12.45,12.45,0,0,0-6.64,6.81A13.34,13.34,0,0,0,1074.59,242.73Z" transform="translate(-379.53 0.19)"/><path class="cls-7" d="M1138.57,253.59a12.86,12.86,0,0,1-2.06,3.15,14.18,14.18,0,0,1-3,2.56,15.37,15.37,0,0,1-8.25,2.37,16,16,0,0,1-5.43-.86,12.08,12.08,0,0,1-4-2.35,9.6,9.6,0,0,1-2.52-3.51,10.93,10.93,0,0,1-.85-4.3,9.34,9.34,0,0,1,.82-3.84,8.47,8.47,0,0,1,2.52-3.19,13.23,13.23,0,0,1,4.3-2.16,21,21,0,0,1,6.22-.81h12.21v-1.28a12,12,0,0,0-.57-3.69,8.74,8.74,0,0,0-4.82-5.4,10.23,10.23,0,0,0-4.33-.86,12.37,12.37,0,0,0-4.87.95,12.07,12.07,0,0,0-4,2.73l-3.68-3.34a19.11,19.11,0,0,1,5.54-3.93,17,17,0,0,1,13.6-.35,13.61,13.61,0,0,1,7.66,8.18,17.13,17.13,0,0,1,1,5.72l0,21.59h-5.47Zm-20.45-2.94a5.42,5.42,0,0,0,2.23,4.45,9.3,9.3,0,0,0,5.86,1.74,13.33,13.33,0,0,0,4.48-.78,12.16,12.16,0,0,0,3.94-2.26,11.21,11.21,0,0,0,3.88-8.67h-12.22q-4.26,0-6.21,1.59A4.9,4.9,0,0,0,1118.12,250.65Z" transform="translate(-379.53 0.19)"/><path class="cls-7" d="M1161.79,261h-5.68l0-36.36h4.9v6.46a12.19,12.19,0,0,1,5-4.82,14.65,14.65,0,0,1,6.89-1.63h1.78v5h-1.77a11.66,11.66,0,0,0-4.44.82,10.48,10.48,0,0,0-3.52,2.3,10.61,10.61,0,0,0-2.31,3.51,11.66,11.66,0,0,0-.82,4.44Z" transform="translate(-379.53 0.19)"/><path class="cls-7" d="M1216,243.08c0,.33,0,.71,0,1.13a4.24,4.24,0,0,1-.18,1.07l-30.18,0a9.77,9.77,0,0,0,1.06,4.55,11.48,11.48,0,0,0,2.84,3.55,13.64,13.64,0,0,0,4,2.35,13.23,13.23,0,0,0,4.69.85,14.29,14.29,0,0,0,10-3.75l3.9,3.41a18.78,18.78,0,0,1-6.15,4.08,20.33,20.33,0,0,1-7.85,1.45,19.35,19.35,0,0,1-6.64-1.21,17.94,17.94,0,0,1-5.92-3.6,17.42,17.42,0,0,1-4.22-5.9,19.42,19.42,0,0,1-1.59-8.2,21,21,0,0,1,1.28-7.35,18,18,0,0,1,3.66-6,17,17,0,0,1,5.72-4,18.15,18.15,0,0,1,7.39-1.45,17.88,17.88,0,0,1,7.49,1.53,17.45,17.45,0,0,1,5.75,4.13,18.06,18.06,0,0,1,3.65,6A21,21,0,0,1,1216,243.08Zm-18.1-14a13,13,0,0,0-5,1,12,12,0,0,0-3.88,2.56,11.67,11.67,0,0,0-2.49,3.69,11.24,11.24,0,0,0-.89,4.43l24.57,0a10.78,10.78,0,0,0-.88-4.3,12,12,0,0,0-2.48-3.73,12.32,12.32,0,0,0-8.91-3.63Z" transform="translate(-379.53 0.19)"/><path class="cls-8" d="M1278.91,256.35a18,18,0,0,1-5.9,4,18.65,18.65,0,0,1-7.39,1.41,18.23,18.23,0,0,1-7.35-1.5,18.94,18.94,0,0,1-10-10.05,18.9,18.9,0,0,1,0-14.71,19,19,0,0,1,4-6,19.23,19.23,0,0,1,6-4.05,18.32,18.32,0,0,1,7.35-1.48,18.13,18.13,0,0,1,7.7,1.6,19.15,19.15,0,0,1,5.93,4.24l-3.91,3.83a13.17,13.17,0,0,0-4.33-3,13.59,13.59,0,0,0-5.4-1.07,13.23,13.23,0,0,0-12.33,8.09,13,13,0,0,0-1,5.18,13.42,13.42,0,0,0,1,5.22,13.58,13.58,0,0,0,17.61,7.12,14.37,14.37,0,0,0,4.23-2.8Z" transform="translate(-379.53 0.19)"/><path class="cls-8" d="M1285.45,242.93a18.71,18.71,0,0,1,5.45-13.24,18.63,18.63,0,0,1,13.25-5.42,18.42,18.42,0,0,1,7.31,1.46,19.26,19.26,0,0,1,6,4,18.56,18.56,0,0,1,4,5.94,19.12,19.12,0,0,1,0,14.63,18.75,18.75,0,0,1-10,10,18.74,18.74,0,0,1-20.56-4,19.35,19.35,0,0,1-4-6A18.5,18.5,0,0,1,1285.45,242.93Zm5.54,0a13.07,13.07,0,0,0,8,12.18,13.23,13.23,0,0,0,10.26,0,13.62,13.62,0,0,0,4.19-2.8,13.34,13.34,0,0,0,2.86-14.52,13.49,13.49,0,0,0-7-7,12.89,12.89,0,0,0-5.14-1,13,13,0,0,0-5.12,1,12.84,12.84,0,0,0-4.19,2.84,13.65,13.65,0,0,0-2.81,4.19A12.91,12.91,0,0,0,1291,242.94Z" transform="translate(-379.53 0.19)"/><path class="cls-8" d="M1367.89,261.19h-5.61l0-19.31a14.84,14.84,0,0,0-.81-4.94,11.33,11.33,0,0,0-6.17-6.72,12.41,12.41,0,0,0-5-1,11.5,11.5,0,0,0-4.76,1,12.22,12.22,0,0,0-3.84,2.73,13.57,13.57,0,0,0-2.63,4.19,15.23,15.23,0,0,0-1.07,5.36l0,18.68h-5.54l0-36.37H1338v7.39a14.65,14.65,0,0,1,2-2.81,15.72,15.72,0,0,1,3-2.62,16.91,16.91,0,0,1,3.88-1.92,13.81,13.81,0,0,1,4.54-.74,16.37,16.37,0,0,1,6.64,1.32,14.75,14.75,0,0,1,5.18,3.74,18,18,0,0,1,3.41,5.75,21.26,21.26,0,0,1,1.23,7.39Z" transform="translate(-379.53 0.19)"/><path class="cls-8" d="M1415.62,261.24H1410l0-19.32a14.78,14.78,0,0,0-.81-4.93,11.75,11.75,0,0,0-2.38-4,11.23,11.23,0,0,0-3.8-2.7,12.07,12.07,0,0,0-5-1,11.46,11.46,0,0,0-4.76,1,11.91,11.91,0,0,0-3.84,2.73,13.28,13.28,0,0,0-2.63,4.19,15,15,0,0,0-1.07,5.36l0,18.68h-5.54l0-36.36h5.54v7.39a14.61,14.61,0,0,1,2-2.8,15.47,15.47,0,0,1,3-2.63,16.62,16.62,0,0,1,3.87-1.91,13.36,13.36,0,0,1,4.55-.74,16.4,16.4,0,0,1,6.64,1.32,14.85,14.85,0,0,1,5.18,3.73,17.71,17.71,0,0,1,3.4,5.76,21,21,0,0,1,1.24,7.38Z" transform="translate(-379.53 0.19)"/><path class="cls-8" d="M1461.8,243.31c0,.33,0,.71,0,1.14a4.19,4.19,0,0,1-.17,1.06l-30.19,0a9.75,9.75,0,0,0,1.06,4.55,11.51,11.51,0,0,0,2.84,3.55,13.57,13.57,0,0,0,4,2.35,13.15,13.15,0,0,0,4.68.86,14.73,14.73,0,0,0,5.69-1,14.36,14.36,0,0,0,4.33-2.73l3.9,3.42a18.56,18.56,0,0,1-6.14,4.07A20.22,20.22,0,0,1,1444,262a19.07,19.07,0,0,1-6.64-1.21,18,18,0,0,1-5.93-3.59,17.76,17.76,0,0,1-4.22-5.9,19.78,19.78,0,0,1-1.59-8.21,20.81,20.81,0,0,1,1.29-7.35,17.66,17.66,0,0,1,3.66-6,16.89,16.89,0,0,1,5.72-4,18.32,18.32,0,0,1,7.39-1.45,17.94,17.94,0,0,1,7.49,1.53,17.55,17.55,0,0,1,5.75,4.13,18.22,18.22,0,0,1,3.65,6A21,21,0,0,1,1461.8,243.31Zm-18.1-14a12.86,12.86,0,0,0-5,1,11.8,11.8,0,0,0-3.87,2.55,11.34,11.34,0,0,0-2.49,3.69,11.14,11.14,0,0,0-.89,4.44l24.57,0a11,11,0,0,0-.88-4.3,12,12,0,0,0-6.35-6.36A12.54,12.54,0,0,0,1443.7,229.3Z" transform="translate(-379.53 0.19)"/><path class="cls-8" d="M1502,256.56a18,18,0,0,1-5.9,4,19.33,19.33,0,0,1-14.74-.08,19,19,0,0,1-10-10.06,18.93,18.93,0,0,1,0-14.7,19,19,0,0,1,10.06-10,18.24,18.24,0,0,1,7.36-1.49,18,18,0,0,1,7.7,1.61,19.12,19.12,0,0,1,5.93,4.23l-3.91,3.83a13.17,13.17,0,0,0-4.33-3,13.59,13.59,0,0,0-5.4-1.07,13.23,13.23,0,0,0-12.33,8.09,13,13,0,0,0-1,5.18,13.24,13.24,0,0,0,1,5.22,13,13,0,0,0,2.84,4.27,13.2,13.2,0,0,0,4.26,2.84,13.43,13.43,0,0,0,5.22,1,13.14,13.14,0,0,0,5.29-1,14.3,14.3,0,0,0,4.23-2.8Z" transform="translate(-379.53 0.19)"/><path class="cls-8" d="M1514.76,261.33l0-31.39h-8.38v-5h8.38v-9.09h5.68V225h8.38v5h-8.38l0,31.39Z" transform="translate(-379.53 0.19)"/></g></svg>